<?xml version="1.0" encoding="utf-8"?>
<!-- Generator: Adobe Illustrator 18.1.1, SVG Export Plug-In . SVG Version: 6.00 Build 0)  -->
<svg version="1.1" id="Layer_1" xmlns="http://www.w3.org/2000/svg" xmlns:xlink="http://www.w3.org/1999/xlink" x="0px" y="0px"
	 viewBox="8 8 16 16" enable-background="new 8 8 16 16" xml:space="preserve">
<path d="M24,16c0,1.4-0.4,2.8-1,4c-0.7,1.2-1.7,2.2-2.9,2.9c-1.2,0.7-2.5,1-4,1s-2.8-0.4-4-1c-1.2-0.7-2.2-1.7-2.9-2.9
	C8.4,18.8,8,17.4,8,16c0-1.5,0.4-2.8,1.1-4c0.8-1.2,1.7-2.2,2.9-2.9S14.6,8,16,8s2.8,0.3,4,1.1c1.2,0.7,2.2,1.7,2.9,2.9
	C23.6,13.2,24,14.5,24,16z M12.6,22c1.1,0.6,2.2,0.9,3.4,0.9s2.4-0.3,3.5-0.9c1-0.6,1.9-1.5,2.5-2.6c0.6-1,1-2.2,1-3.4
	s-0.3-2.4-1-3.5s-1.5-1.9-2.5-2.5c-1.1-0.6-2.2-1-3.5-1s-2.4,0.4-3.4,1c-1.1,0.6-1.9,1.4-2.6,2.5c-0.6,1.1-0.9,2.2-0.9,3.5
	c0,1.2,0.3,2.4,0.9,3.4C10.6,20.5,11.4,21.4,12.6,22z M16.5,17.6h-1v-5.4h1V17.6z M16.5,19.7h-1v-1.1h1V19.7z"/>
</svg>
